<svg width="448" height="512" xmlns="http://www.w3.org/2000/svg" class="svg-inline--fa fa-calendar-alt fa-w-14">

 <g>
  <title>background</title>
  <rect fill="none" id="canvas_background" height="402" width="582" y="-1" x="-1"/>
 </g>
 <g>
  <title>Layer 1</title>
  <path id="svg_1" d="m148,288l-40,0c-6.6,0 -12,-5.4 -12,-12l0,-40c0,-6.6 5.4,-12 12,-12l40,0c6.6,0 12,5.4 12,12l0,40c0,6.6 -5.4,12 -12,12zm108,-12l0,-40c0,-6.6 -5.4,-12 -12,-12l-40,0c-6.6,0 -12,5.4 -12,12l0,40c0,6.6 5.4,12 12,12l40,0c6.6,0 12,-5.4 12,-12zm96,0l0,-40c0,-6.6 -5.4,-12 -12,-12l-40,0c-6.6,0 -12,5.4 -12,12l0,40c0,6.6 5.4,12 12,12l40,0c6.6,0 12,-5.4 12,-12zm-96,96l0,-40c0,-6.6 -5.4,-12 -12,-12l-40,0c-6.6,0 -12,5.4 -12,12l0,40c0,6.6 5.4,12 12,12l40,0c6.6,0 12,-5.4 12,-12zm-96,0l0,-40c0,-6.6 -5.4,-12 -12,-12l-40,0c-6.6,0 -12,5.4 -12,12l0,40c0,6.6 5.4,12 12,12l40,0c6.6,0 12,-5.4 12,-12zm192,0l0,-40c0,-6.6 -5.4,-12 -12,-12l-40,0c-6.6,0 -12,5.4 -12,12l0,40c0,6.6 5.4,12 12,12l40,0c6.6,0 12,-5.4 12,-12zm96,-260l0,352c0,26.5 -21.5,48 -48,48l-352,0c-26.5,0 -48,-21.5 -48,-48l0,-352c0,-26.5 21.5,-48 48,-48l48,0l0,-52c0,-6.6 5.4,-12 12,-12l40,0c6.6,0 12,5.4 12,12l0,52l128,0l0,-52c0,-6.6 5.4,-12 12,-12l40,0c6.6,0 12,5.4 12,12l0,52l48,0c26.5,0 48,21.5 48,48zm-48,346l0,-298l-352,0l0,298c0,3.3 2.7,6 6,6l340,0c3.3,0 6,-2.7 6,-6z" fill="#b9bdce"/>
 </g>
</svg>